<?xml version="1.0" encoding="UTF-8"?>
<svg xmlns="http://www.w3.org/2000/svg" xmlns:xlink="http://www.w3.org/1999/xlink" version="1.1" viewBox="0 0 500 500">
  <defs>
    <style>
      .st0, .st1, .st2 {
        fill: #404040;
      }

      .st0, .st3 {
        display: none;
      }

      .st4 {
        fill: url(#linear-gradient8);
      }

      .st5 {
        fill: url(#linear-gradient4);
      }

      .st6 {
        fill: url(#linear-gradient6);
      }

      .st6, .st7, .st8, .st9, .st10, .st11, .st12, .st13, .st14, .st15, .st16, .st17, .st18 {
        mix-blend-mode: screen;
      }

      .st7 {
        fill: url(#linear-gradient3);
      }

      .st19 {
        fill: url(#linear-gradient32);
      }

      .st20 {
        fill: url(#linear-gradient34);
      }

      .st21 {
        fill: url(#linear-gradient33);
      }

      .st22 {
        fill: url(#linear-gradient28);
      }

      .st23 {
        fill: url(#linear-gradient12);
      }

      .st24 {
        fill: url(#linear-gradient16);
      }

      .st25 {
        fill: url(#linear-gradient24);
      }

      .st26 {
        fill: url(#linear-gradient20);
      }

      .st27 {
        fill: url(#linear-gradient31);
      }

      .st27, .st28, .st29, .st30, .st31, .st32, .st33, .st34, .st35, .st36, .st37, .st38, .st39, .st40, .st41, .st42, .st43 {
        mix-blend-mode: multiply;
      }

      .st28 {
        fill: url(#linear-gradient21);
      }

      .st29 {
        fill: url(#linear-gradient27);
      }

      .st30 {
        fill: url(#linear-gradient23);
      }

      .st31 {
        fill: url(#linear-gradient25);
      }

      .st32 {
        fill: url(#linear-gradient19);
      }

      .st33 {
        fill: url(#linear-gradient14);
      }

      .st34 {
        fill: url(#linear-gradient17);
      }

      .st35 {
        fill: url(#linear-gradient13);
      }

      .st36 {
        fill: url(#linear-gradient11);
      }

      .st37 {
        fill: url(#linear-gradient29);
      }

      .st44 {
        fill: url(#radial-gradient);
      }

      .st45 {
        fill: url(#linear-gradient);
      }

      .st1 {
        font-family: Montserrat-SemiBold, 'Montserrat SemiBold';
        font-size: 43px;
        font-weight: 600;
      }

      .st46 {
        isolation: isolate;
      }

      .st2 {
        font-family: Montserrat-Light, 'Montserrat Light';
        font-size: 18px;
        font-weight: 300;
      }

      .st8 {
        fill: url(#linear-gradient30);
      }

      .st9 {
        fill: url(#linear-gradient35);
      }

      .st10 {
        fill: url(#linear-gradient22);
      }

      .st11 {
        fill: url(#linear-gradient26);
      }

      .st12 {
        fill: url(#linear-gradient15);
      }

      .st13 {
        fill: url(#linear-gradient10);
      }

      .st14 {
        fill: url(#linear-gradient18);
      }

      .st15 {
        fill: url(#linear-gradient38);
      }

      .st15, .st16, .st17, .st18 {
        opacity: .6;
      }

      .st16 {
        fill: url(#linear-gradient36);
      }

      .st17 {
        fill: url(#linear-gradient37);
      }

      .st18 {
        fill: url(#linear-gradient39);
      }

      .st39 {
        fill: url(#linear-gradient1);
      }

      .st40 {
        fill: url(#linear-gradient2);
      }

      .st41 {
        fill: url(#linear-gradient7);
      }

      .st42 {
        fill: url(#linear-gradient5);
      }

      .st43 {
        fill: url(#linear-gradient9);
      }
    </style>
    <radialGradient id="radial-gradient" cx="250" cy="250" fx="250" fy="250" r="250" gradientUnits="userSpaceOnUse">
      <stop offset="0" stop-color="#fff"/>
      <stop offset="1" stop-color="#e3e3e3"/>
    </radialGradient>
    <linearGradient id="linear-gradient" x1="228.52" y1="223.34" x2="333.33" y2="223.34" gradientUnits="userSpaceOnUse">
      <stop offset="0" stop-color="#339"/>
      <stop offset="1" stop-color="#f0c"/>
    </linearGradient>
    <linearGradient id="linear-gradient1" x1="273.58" y1="276.21" x2="273.58" y2="186.68" gradientUnits="userSpaceOnUse">
      <stop offset="0" stop-color="#58236b"/>
      <stop offset=".36" stop-color="#f6deff"/>
      <stop offset="1" stop-color="#58236b"/>
    </linearGradient>
    <linearGradient id="linear-gradient2" x1="228.52" y1="259.75" x2="243.49" y2="259.75" gradientUnits="userSpaceOnUse">
      <stop offset="0" stop-color="#fff"/>
      <stop offset="1" stop-color="#949494"/>
    </linearGradient>
    <linearGradient id="linear-gradient3" x1="228.52" y1="223.34" x2="333.33" y2="223.34" gradientUnits="userSpaceOnUse">
      <stop offset="0" stop-color="#f0c"/>
      <stop offset="1" stop-color="#339"/>
    </linearGradient>
    <linearGradient id="linear-gradient4" x1="171.1" y1="258.1" x2="243.52" y2="258.1" xlink:href="#linear-gradient"/>
    <linearGradient id="linear-gradient5" x1="207.31" y1="276.21" x2="207.31" y2="254.77" gradientUnits="userSpaceOnUse">
      <stop offset="0" stop-color="#58236b"/>
      <stop offset=".64" stop-color="#f6deff"/>
      <stop offset="1" stop-color="#58236b"/>
    </linearGradient>
    <linearGradient id="linear-gradient6" x1="171.1" y1="258.1" x2="243.52" y2="258.1" xlink:href="#linear-gradient3"/>
    <linearGradient id="linear-gradient7" x1="181.89" y1="258.12" x2="203.39" y2="258.12" xlink:href="#linear-gradient2"/>
    <linearGradient id="linear-gradient8" x1="171.1" y1="208.49" x2="250.68" y2="208.49" xlink:href="#linear-gradient3"/>
    <linearGradient id="linear-gradient9" x1="204.52" x2="204.52" y2="162.7" xlink:href="#linear-gradient1"/>
    <linearGradient id="linear-gradient10" x1="171.1" y1="208.49" x2="243.79" y2="208.49" xlink:href="#linear-gradient3"/>
    <linearGradient id="linear-gradient11" x1="171.1" y1="258.65" x2="186.07" y2="258.65" xlink:href="#linear-gradient2"/>
    <linearGradient id="linear-gradient12" x1="167.05" x2="271.86" xlink:href="#linear-gradient3"/>
    <linearGradient id="linear-gradient13" x1="226.79" x2="226.79" y2="186.68" xlink:href="#linear-gradient1"/>
    <linearGradient id="linear-gradient14" x1="200.19" x2="215.15" gradientTransform="translate(472.01) rotate(-180) scale(1 -1)" xlink:href="#linear-gradient2"/>
    <linearGradient id="linear-gradient15" x1="167.05" x2="271.86" xlink:href="#linear-gradient3"/>
    <linearGradient id="linear-gradient16" x1="256.86" y1="258.1" x2="329.27" y2="258.1" xlink:href="#linear-gradient3"/>
    <linearGradient id="linear-gradient17" x1="293.06" x2="293.06" xlink:href="#linear-gradient5"/>
    <linearGradient id="linear-gradient18" x1="256.86" y1="258.1" x2="329.27" y2="258.1" xlink:href="#linear-gradient3"/>
    <linearGradient id="linear-gradient19" x1="66.78" y1="258.12" x2="88.28" y2="258.12" gradientTransform="translate(385.28) rotate(-180) scale(1 -1)" xlink:href="#linear-gradient2"/>
    <linearGradient id="linear-gradient20" x1="113.68" y1="258.1" x2="186.1" y2="258.1" xlink:href="#linear-gradient3"/>
    <linearGradient id="linear-gradient21" x1="149.89" x2="149.89" xlink:href="#linear-gradient5"/>
    <linearGradient id="linear-gradient22" x1="113.68" y1="258.1" x2="186.1" y2="258.1" xlink:href="#linear-gradient3"/>
    <linearGradient id="linear-gradient23" x1="122.03" y1="258.39" x2="143.52" y2="258.39" xlink:href="#linear-gradient2"/>
    <linearGradient id="linear-gradient24" x1="249.69" y1="208.49" x2="329.27" y2="208.49" xlink:href="#linear-gradient"/>
    <linearGradient id="linear-gradient25" x1="295.85" x2="295.85" y2="162.7" xlink:href="#linear-gradient1"/>
    <linearGradient id="linear-gradient26" x1="256.59" y1="208.49" x2="329.27" y2="208.49" xlink:href="#linear-gradient3"/>
    <linearGradient id="linear-gradient27" x1="27.93" y1="258.65" x2="42.9" y2="258.65" gradientTransform="translate(357.17) rotate(-180) scale(1 -1)" xlink:href="#linear-gradient2"/>
    <linearGradient id="linear-gradient28" x1="314.27" y1="258.1" x2="386.32" y2="258.1" xlink:href="#linear-gradient3"/>
    <linearGradient id="linear-gradient29" x1="350.29" y1="276.11" x2="350.29" y2="254.86" xlink:href="#linear-gradient5"/>
    <linearGradient id="linear-gradient30" x1="314.27" y1="258.1" x2="386.32" y2="258.1" xlink:href="#linear-gradient3"/>
    <linearGradient id="linear-gradient31" x1="356.59" y1="258.38" x2="378" y2="258.38" xlink:href="#linear-gradient2"/>
    <linearGradient id="linear-gradient32" x1="113.68" y1="208.05" x2="386.32" y2="208.05" xlink:href="#linear-gradient3"/>
    <linearGradient id="linear-gradient33" x1="330.33" x2="330.33" y2="157.53" xlink:href="#linear-gradient1"/>
    <linearGradient id="linear-gradient34" x1="169.67" x2="169.67" y2="157.53" xlink:href="#linear-gradient1"/>
    <linearGradient id="linear-gradient35" x1="113.68" y1="208.05" x2="386.32" y2="208.05" xlink:href="#linear-gradient3"/>
    <linearGradient id="linear-gradient36" x1="155.11" y1="184.09" x2="206.96" y2="152.54" gradientUnits="userSpaceOnUse">
      <stop offset="0" stop-color="#000"/>
      <stop offset=".58" stop-color="#fff"/>
      <stop offset="1" stop-color="#000"/>
    </linearGradient>
    <linearGradient id="linear-gradient37" x1="212.52" y1="186.04" x2="242.2" y2="207.28" xlink:href="#linear-gradient36"/>
    <linearGradient id="linear-gradient38" x1="265.62" y1="201.1" x2="278.43" y2="191.1" xlink:href="#linear-gradient36"/>
    <linearGradient id="linear-gradient39" x1="212.57" y1="165.55" x2="223.05" y2="165.55" xlink:href="#linear-gradient36"/>
  </defs>
  <g class="st46">
    <g id="BACKGROUND" class="st3">
      <rect class="st44" width="500" height="500"/>
    </g>
    <g id="OBJECTS">
      <g>
        <path class="st45" d="M243.52,276.21h-15c0-27.6,9.86-53.57,27.77-73.12,19.26-21.03,46.62-32.61,77.03-32.61v15c-26.54,0-49.35,9.59-65.97,27.74-15.15,16.54-23.84,39.49-23.84,62.99Z"/>
        <path class="st39" d="M229.53,276.21h13.99c0-23.49,8.69-46.45,23.84-62.99,13.24-14.46,30.43-23.47,50.28-26.54-24.07,3.29-45.46,14.2-61.35,31.54-14.59,15.93-23.84,36.12-26.77,57.98Z"/>
        <path class="st40" d="M228.55,273.48c-.01.91-.03,1.81-.03,2.72h14.97c-.27-11.61-3.8-23.14-10.07-32.92-2.96,9.64-4.61,19.79-4.86,30.19Z"/>
        <path class="st7" d="M256.3,203.09c-17.91,19.55-27.77,45.52-27.77,73.12h.2c1.47-25.08,11.12-48.45,27.57-66.41,19.26-21.03,46.62-32.61,77.03-32.61v-6.71c-30.41,0-57.77,11.58-77.03,32.61Z"/>
        <path class="st5" d="M243.52,276.21h-15c0-11.7-9.51-21.21-21.21-21.21s-21.21,9.51-21.21,21.21h-15c0-19.97,16.24-36.21,36.21-36.21s36.21,16.24,36.21,36.21Z"/>
        <path class="st42" d="M207.31,254.77c-14.7,0-27.38,8.82-33.05,21.44h11.84c0-11.7,9.51-21.21,21.21-21.21s21.21,9.51,21.21,21.21h11.84c-5.66-12.62-18.34-21.44-33.05-21.44Z"/>
        <path class="st6" d="M207.31,245.35c18.15,0,33.22,13.42,35.81,30.86h.4c0-19.97-16.24-36.21-36.21-36.21s-36.21,16.24-36.21,36.21h.4c2.59-17.44,17.66-30.86,35.81-30.86Z"/>
        <path class="st41" d="M203.39,240.21c-7.09.77-13.57,3.59-18.83,7.86-3,9.55-4.29,19.21.63,27.95,1.14-13.69,7.84-26.81,18.2-35.81Z"/>
        <path class="st4" d="M186.1,276.21h-15c0-59.42,28.53-112.58,72.68-135.44l6.9,13.32c-18.72,9.69-34.73,26.06-46.28,47.33-11.97,22.05-18.3,47.91-18.3,74.79Z"/>
        <path class="st43" d="M172.01,276.21h14.09c0-26.88,6.33-52.74,18.3-74.79,8.63-15.89,19.75-29.04,32.63-38.72-35.91,21.93-60.18,64.6-65.02,113.51Z"/>
        <path class="st13" d="M243.79,146.75v-5.98c-44.15,22.86-72.68,76.02-72.68,135.44h.1c1.84-56.98,29.91-107.37,72.58-129.46Z"/>
        <path class="st36" d="M186.07,276.21c-.29-12.49-4.35-24.89-11.55-35.11-2.23,11.32-3.42,23.08-3.42,35.11h14.97Z"/>
        <path class="st23" d="M271.86,276.21h-15c0-23.49-8.69-46.45-23.84-62.99-16.62-18.15-39.43-27.74-65.97-27.74v-15c30.42,0,57.77,11.58,77.03,32.61,17.91,19.55,27.77,45.52,27.77,73.12Z"/>
        <path class="st35" d="M182.73,186.68c19.86,3.07,37.04,12.08,50.28,26.54,15.15,16.54,23.84,39.49,23.84,62.99h13.99c-2.93-21.86-12.18-42.05-26.77-57.98-15.88-17.34-37.28-28.25-61.35-31.54Z"/>
        <path class="st33" d="M271.79,273.48c.01.91.03,1.81.03,2.72h-14.97c.27-11.61,3.8-23.14,10.07-32.92,2.96,9.64,4.61,19.79,4.86,30.19Z"/>
        <path class="st12" d="M244.08,209.37c16.54,18.06,26.22,41.6,27.6,66.84h.18c0-27.6-9.86-53.57-27.77-73.12-19.26-21.03-46.62-32.61-77.03-32.61v6.28c30.42,0,57.77,11.58,77.03,32.61Z"/>
        <path class="st24" d="M329.27,276.21h-15c0-11.7-9.51-21.21-21.21-21.21s-21.21,9.51-21.21,21.21h-15c0-19.97,16.24-36.21,36.21-36.21s36.21,16.24,36.21,36.21Z"/>
        <path class="st34" d="M293.06,254.77c-14.7,0-27.38,8.82-33.05,21.44h11.84c0-11.7,9.51-21.21,21.21-21.21s21.21,9.51,21.21,21.21h11.84c-5.66-12.62-18.34-21.44-33.05-21.44Z"/>
        <path class="st14" d="M293.06,245.35c18.15,0,33.22,13.42,35.81,30.86h.4c0-19.97-16.24-36.21-36.21-36.21s-36.21,16.24-36.21,36.21h.4c2.59-17.44,17.66-30.86,35.81-30.86Z"/>
        <path class="st32" d="M297.01,240.21c7.09.77,13.57,3.59,18.83,7.86,3,9.55,4.29,19.21-.63,27.95-1.14-13.69-7.84-26.81-18.2-35.81Z"/>
        <path class="st26" d="M186.1,276.21h-15c0-11.7-9.51-21.21-21.21-21.21s-21.21,9.51-21.21,21.21h-15c0-19.97,16.24-36.21,36.21-36.21s36.21,16.24,36.21,36.21Z"/>
        <path class="st28" d="M149.89,254.77c-14.7,0-27.38,8.82-33.05,21.44h11.84c0-11.7,9.51-21.21,21.21-21.21s21.21,9.51,21.21,21.21h11.84c-5.66-12.62-18.34-21.44-33.05-21.44Z"/>
        <path class="st10" d="M149.89,245.35c18.15,0,33.22,13.42,35.81,30.86h.4c0-19.97-16.24-36.21-36.21-36.21s-36.21,16.24-36.21,36.21h.4c2.59-17.44,17.66-30.86,35.81-30.86Z"/>
        <path class="st30" d="M143.52,240.57c-8.11,1.45-15.3,5.6-20.59,11.5-2.2,8.01-.22,17.01,4.22,24.14h.5c1.58-13.11,7.21-25.68,15.87-35.64Z"/>
        <path class="st25" d="M329.27,276.21h-15c0-26.88-6.33-52.74-18.3-74.79-11.55-21.27-27.56-37.64-46.28-47.33l6.9-13.32c44.15,22.86,72.68,76.02,72.68,135.44Z"/>
        <path class="st31" d="M263.34,162.7c12.88,9.68,24,22.83,32.63,38.72,11.97,22.05,18.3,47.91,18.3,74.79h14.09c-4.84-48.91-29.11-91.58-65.02-113.51Z"/>
        <path class="st11" d="M256.59,146.75c42.67,22.09,70.74,72.48,72.58,129.46h.1c0-59.42-28.53-112.58-72.68-135.44v5.98Z"/>
        <path class="st29" d="M314.27,276.21c.29-12.49,4.35-24.89,11.55-35.11,2.23,11.32,3.42,23.08,3.42,35.11h-14.97Z"/>
        <path class="st22" d="M386.32,276.11h-15c0-11.59-9.43-21.02-21.02-21.02s-21.02,9.43-21.02,21.02h-15c0-19.86,16.16-36.02,36.02-36.02s36.02,16.16,36.02,36.02Z"/>
        <path class="st37" d="M350.29,254.86c-14.6,0-27.19,8.73-32.84,21.25h11.82c0-11.59,9.43-21.02,21.02-21.02s21.02,9.43,21.02,21.02h11.82c-5.65-12.51-18.24-21.25-32.84-21.25Z"/>
        <path class="st8" d="M350.29,245.44c18.04,0,33.03,13.34,35.62,30.67h.4c0-19.86-16.16-36.02-36.02-36.02s-36.02,16.16-36.02,36.02h.4c2.59-17.33,17.58-30.67,35.62-30.67Z"/>
        <path class="st27" d="M356.59,240.65c8.6,9.92,14.2,22.42,15.79,35.46h.57c4.39-7.11,6.34-16.05,4.17-24.02-5.27-5.88-12.43-10.01-20.52-11.44Z"/>
        <path class="st19" d="M386.32,276.21h-15c0-66.89-54.42-121.32-121.32-121.32s-121.32,54.42-121.32,121.32h-15c0-75.16,61.15-136.32,136.32-136.32s136.32,61.15,136.32,136.32Z"/>
        <g class="st38">
          <path class="st21" d="M275.2,157.53c54.84,11.63,96.12,60.42,96.12,118.68h14.14c-6.69-59.63-51.99-107.74-110.25-118.68Z"/>
          <path class="st20" d="M114.55,276.21h14.14c0-58.26,41.28-107.05,96.12-118.68-58.26,10.93-103.56,59.05-110.25,118.68Z"/>
        </g>
        <path class="st9" d="M250,146.61c72.91,0,132.63,57.54,136.15,129.59h.17c0-75.16-61.15-136.32-136.32-136.32s-136.32,61.15-136.32,136.32h.17c3.52-72.05,63.24-129.59,136.15-129.59Z"/>
        <path class="st16" d="M149.31,191.14c15.76-18.31,37.06-31.86,60.27-38.54l4.67-1.22-4.59,1.48c-22.84,7.64-43.67,20.93-60.35,38.29h0Z"/>
        <path class="st17" d="M205.57,183.52c13.97,4.47,26.76,12.76,36.6,23.63.65.73,1.28,1.47,1.91,2.22-.71-.67-1.41-1.35-2.1-2.04-10.53-10.12-22.96-18.14-36.41-23.81h0Z"/>
        <path class="st15" d="M264.34,201.97c4.25-4.6,9.46-8.32,15.2-10.83-5.05,3.72-10.04,7.27-15.2,10.83h0Z"/>
        <path class="st18" d="M212.57,170.48c2.8-3.95,6.36-7.32,10.47-9.87-3.23,3.61-6.68,6.85-10.47,9.87h0Z"/>
      </g>
      <path class="st0" d="M370.47,349.41c0,2.57-2.08,4.65-4.65,4.65s-4.65-2.08-4.65-4.65,2.08-4.65,4.65-4.65,4.65,2.08,4.65,4.65Z"/>
      <path class="st0" d="M138.82,349.41c0,2.57-2.08,4.65-4.65,4.65s-4.65-2.08-4.65-4.65,2.08-4.65,4.65-4.65,4.65,2.08,4.65,4.65Z"/>
    </g>
    <g id="TEXTS" class="st3">
      <text class="st1" transform="translate(134.78 326.12)"><tspan x="0" y="0">DOME LOGO</tspan></text>
      <text class="st2" transform="translate(172.34 356.13)"><tspan x="0" y="0">YOUR TAGLINE HERE</tspan></text>
    </g>
  </g>
</svg>